<mxfile host="Electron" agent="Mozilla/5.0 (X11; Linux x86_64) AppleWebKit/537.36 (KHTML, like Gecko) draw.io/24.7.8 Chrome/128.0.6613.36 Electron/32.0.1 Safari/537.36" version="24.7.8">
  <diagram name="Page-1" id="2K4qOzKMvEv2gDJJYcip">
    <mxGraphModel dx="1418" dy="746" grid="1" gridSize="10" guides="1" tooltips="1" connect="1" arrows="1" fold="1" page="1" pageScale="1" pageWidth="1169" pageHeight="827" math="0" shadow="0">
      <root>
        <mxCell id="0" />
        <mxCell id="1" parent="0" />
        <mxCell id="opBTZJq-6XGTckG7SBnG-1" value="&lt;font style=&quot;font-size: 17px;&quot;&gt;Kafka&lt;/font&gt;&lt;div style=&quot;font-size: 17px;&quot;&gt;&lt;font style=&quot;font-size: 17px;&quot;&gt;topic&lt;/font&gt;&lt;/div&gt;&lt;div style=&quot;font-size: 17px;&quot;&gt;&lt;i style=&quot;&quot;&gt;&lt;font style=&quot;font-size: 17px;&quot;&gt;http-request&lt;/font&gt;&lt;/i&gt;&lt;/div&gt;" style="shape=cylinder3;whiteSpace=wrap;html=1;boundedLbl=1;backgroundOutline=1;size=15;fillColor=#dae8fc;strokeColor=#6c8ebf;" parent="1" vertex="1">
          <mxGeometry x="110" y="310" width="100" height="190" as="geometry" />
        </mxCell>
        <mxCell id="opBTZJq-6XGTckG7SBnG-2" value="" style="rounded=0;whiteSpace=wrap;html=1;" parent="1" vertex="1">
          <mxGeometry x="290" y="160" width="750" height="640" as="geometry" />
        </mxCell>
        <mxCell id="opBTZJq-6XGTckG7SBnG-3" value="" style="rounded=0;whiteSpace=wrap;html=1;" parent="1" vertex="1">
          <mxGeometry x="310" y="170" width="710" height="450" as="geometry" />
        </mxCell>
        <mxCell id="opBTZJq-6XGTckG7SBnG-5" value="&lt;font style=&quot;font-size: 20px;&quot;&gt;Kafka Connect Cluster&lt;/font&gt;" style="text;html=1;align=center;verticalAlign=middle;whiteSpace=wrap;rounded=0;" parent="1" vertex="1">
          <mxGeometry x="432" y="757" width="210" height="30" as="geometry" />
        </mxCell>
        <mxCell id="opBTZJq-6XGTckG7SBnG-14" value="" style="group;fillColor=#dae8fc;strokeColor=#6c8ebf;" parent="1" vertex="1" connectable="0">
          <mxGeometry x="10" y="566" width="190" height="114" as="geometry" />
        </mxCell>
        <mxCell id="opBTZJq-6XGTckG7SBnG-15" value="" style="group;fillColor=#dae8fc;strokeColor=#6c8ebf;" parent="opBTZJq-6XGTckG7SBnG-14" vertex="1" connectable="0">
          <mxGeometry width="190" height="113.99999999999999" as="geometry" />
        </mxCell>
        <mxCell id="opBTZJq-6XGTckG7SBnG-11" value="" style="shape=message;html=1;html=1;outlineConnect=0;labelPosition=center;verticalLabelPosition=bottom;align=center;verticalAlign=top;fillColor=#f8cecc;strokeColor=#b85450;" parent="opBTZJq-6XGTckG7SBnG-15" vertex="1">
          <mxGeometry width="190" height="113.99999999999999" as="geometry" />
        </mxCell>
        <mxCell id="opBTZJq-6XGTckG7SBnG-12" value="&lt;font style=&quot;font-size: 18px;&quot;&gt;fail.net&lt;/font&gt;&lt;div style=&quot;font-size: 18px;&quot;&gt;&lt;font style=&quot;font-size: 18px;&quot;&gt;POST&lt;/font&gt;&lt;/div&gt;&lt;div style=&quot;font-size: 18px;&quot;&gt;&lt;font style=&quot;font-size: 18px;&quot;&gt;/foo&lt;/font&gt;&lt;/div&gt;" style="text;html=1;align=center;verticalAlign=middle;whiteSpace=wrap;rounded=0;" parent="opBTZJq-6XGTckG7SBnG-15" vertex="1">
          <mxGeometry x="10" y="68.84" width="160" height="34.2" as="geometry" />
        </mxCell>
        <mxCell id="opBTZJq-6XGTckG7SBnG-16" value="" style="group;fillColor=#dae8fc;strokeColor=#6c8ebf;" parent="1" vertex="1" connectable="0">
          <mxGeometry x="20" y="60" width="190" height="113.99999999999999" as="geometry" />
        </mxCell>
        <mxCell id="opBTZJq-6XGTckG7SBnG-17" value="" style="shape=message;html=1;html=1;outlineConnect=0;labelPosition=center;verticalLabelPosition=bottom;align=center;verticalAlign=top;fillColor=#d5e8d4;strokeColor=#82b366;" parent="opBTZJq-6XGTckG7SBnG-16" vertex="1">
          <mxGeometry width="190" height="113.99999999999999" as="geometry" />
        </mxCell>
        <mxCell id="opBTZJq-6XGTckG7SBnG-18" value="&lt;div style=&quot;font-size: 18px;&quot;&gt;&lt;font style=&quot;font-size: 18px;&quot;&gt;myserver1.com&lt;/font&gt;&lt;/div&gt;&lt;div style=&quot;font-size: 18px;&quot;&gt;&lt;font style=&quot;font-size: 18px;&quot;&gt;GET&lt;/font&gt;&lt;/div&gt;&lt;div style=&quot;font-size: 18px;&quot;&gt;&lt;font style=&quot;font-size: 18px;&quot;&gt;/test&lt;/font&gt;&lt;/div&gt;" style="text;html=1;align=center;verticalAlign=middle;whiteSpace=wrap;rounded=0;" parent="opBTZJq-6XGTckG7SBnG-16" vertex="1">
          <mxGeometry x="10" y="68.84" width="160" height="34.2" as="geometry" />
        </mxCell>
        <mxCell id="opBTZJq-6XGTckG7SBnG-19" value="&lt;font style=&quot;font-size: 16px;&quot;&gt;HTTP server&lt;/font&gt;&lt;div style=&quot;font-size: 16px;&quot;&gt;&lt;font style=&quot;font-size: 16px;&quot;&gt;myserver1.com&lt;/font&gt;&lt;/div&gt;" style="rounded=0;whiteSpace=wrap;html=1;fillColor=#d5e8d4;strokeColor=#82b366;" parent="1" vertex="1">
          <mxGeometry x="330" y="60" width="180" height="70" as="geometry" />
        </mxCell>
        <mxCell id="opBTZJq-6XGTckG7SBnG-20" value="&lt;font style=&quot;font-size: 16px;&quot;&gt;HTTP server&lt;/font&gt;&lt;div style=&quot;font-size: 16px;&quot;&gt;&lt;font style=&quot;font-size: 16px;&quot;&gt;fail.net&lt;/font&gt;&lt;/div&gt;" style="rounded=0;whiteSpace=wrap;html=1;fillColor=#f8cecc;strokeColor=#b85450;" parent="1" vertex="1">
          <mxGeometry x="580" y="60" width="180" height="70" as="geometry" />
        </mxCell>
        <mxCell id="opBTZJq-6XGTckG7SBnG-22" value="" style="endArrow=classic;html=1;rounded=0;entryX=0.5;entryY=0;entryDx=0;entryDy=0;entryPerimeter=0;fillColor=#d5e8d4;strokeColor=#000000;" parent="1" target="opBTZJq-6XGTckG7SBnG-1" edge="1">
          <mxGeometry width="50" height="50" relative="1" as="geometry">
            <mxPoint x="100" y="180" as="sourcePoint" />
            <mxPoint x="610" y="330" as="targetPoint" />
          </mxGeometry>
        </mxCell>
        <mxCell id="opBTZJq-6XGTckG7SBnG-23" value="" style="endArrow=classic;html=1;rounded=0;entryX=0.5;entryY=1;entryDx=0;entryDy=0;entryPerimeter=0;exitX=0.5;exitY=0;exitDx=0;exitDy=0;fillColor=#f8cecc;strokeColor=#000000;" parent="1" source="opBTZJq-6XGTckG7SBnG-11" target="opBTZJq-6XGTckG7SBnG-1" edge="1">
          <mxGeometry width="50" height="50" relative="1" as="geometry">
            <mxPoint x="110" y="190" as="sourcePoint" />
            <mxPoint x="170" y="320" as="targetPoint" />
          </mxGeometry>
        </mxCell>
        <mxCell id="opBTZJq-6XGTckG7SBnG-25" value="" style="rounded=0;whiteSpace=wrap;html=1;fontSize=17;" parent="1" vertex="1">
          <mxGeometry x="322" y="190" width="568" height="350" as="geometry" />
        </mxCell>
        <mxCell id="opBTZJq-6XGTckG7SBnG-26" value="success ?" style="strokeWidth=2;html=1;shape=mxgraph.flowchart.decision;whiteSpace=wrap;" parent="1" vertex="1">
          <mxGeometry x="910" y="273" width="80" height="90" as="geometry" />
        </mxCell>
        <mxCell id="opBTZJq-6XGTckG7SBnG-28" value="Connector" style="rounded=0;whiteSpace=wrap;html=1;" parent="1" vertex="1">
          <mxGeometry x="320" y="550" width="570" height="60" as="geometry" />
        </mxCell>
        <mxCell id="mRzZPIl0D3V7TroaUUCZ-1" value="split&lt;div&gt;message&lt;/div&gt;" style="rounded=0;whiteSpace=wrap;html=1;fillColor=#dae8fc;strokeColor=#6c8ebf;" parent="1" vertex="1">
          <mxGeometry x="330" y="314" width="50" height="190" as="geometry" />
        </mxCell>
        <mxCell id="mRzZPIl0D3V7TroaUUCZ-4" value="" style="edgeStyle=orthogonalEdgeStyle;rounded=0;orthogonalLoop=1;jettySize=auto;html=1;" parent="1" edge="1">
          <mxGeometry relative="1" as="geometry">
            <mxPoint x="445" y="421" as="sourcePoint" />
            <mxPoint x="460" y="421" as="targetPoint" />
          </mxGeometry>
        </mxCell>
        <mxCell id="mRzZPIl0D3V7TroaUUCZ-2" value="map&lt;div&gt;message&lt;/div&gt;&lt;div&gt;into&lt;/div&gt;&lt;div&gt;request&lt;/div&gt;" style="rounded=0;whiteSpace=wrap;html=1;fillColor=#dae8fc;strokeColor=#6c8ebf;" parent="1" vertex="1">
          <mxGeometry x="395" y="314" width="50" height="190" as="geometry" />
        </mxCell>
        <mxCell id="mRzZPIl0D3V7TroaUUCZ-3" value="group&lt;div&gt;requests&lt;/div&gt;" style="rounded=0;whiteSpace=wrap;html=1;fillColor=#dae8fc;strokeColor=#6c8ebf;" parent="1" vertex="1">
          <mxGeometry x="460" y="314" width="50" height="190" as="geometry" />
        </mxCell>
        <mxCell id="mRzZPIl0D3V7TroaUUCZ-5" value="" style="edgeStyle=orthogonalEdgeStyle;rounded=0;orthogonalLoop=1;jettySize=auto;html=1;exitX=1;exitY=0.5;exitDx=0;exitDy=0;entryX=0;entryY=0.5;entryDx=0;entryDy=0;" parent="1" edge="1">
          <mxGeometry relative="1" as="geometry">
            <mxPoint x="380" y="420" as="sourcePoint" />
            <mxPoint x="395" y="420" as="targetPoint" />
          </mxGeometry>
        </mxCell>
        <mxCell id="mRzZPIl0D3V7TroaUUCZ-8" value="" style="group" parent="1" vertex="1" connectable="0">
          <mxGeometry x="530" y="198" width="145" height="340" as="geometry" />
        </mxCell>
        <mxCell id="mRzZPIl0D3V7TroaUUCZ-6" value="" style="rounded=0;whiteSpace=wrap;html=1;" parent="mRzZPIl0D3V7TroaUUCZ-8" vertex="1">
          <mxGeometry width="145" height="334.92537313432837" as="geometry" />
        </mxCell>
        <mxCell id="mRzZPIl0D3V7TroaUUCZ-7" value="HTTP client&lt;div&gt;configuration&lt;/div&gt;" style="text;html=1;align=center;verticalAlign=middle;whiteSpace=wrap;rounded=0;" parent="mRzZPIl0D3V7TroaUUCZ-8" vertex="1">
          <mxGeometry x="21.166666666666668" y="289.22859387274156" width="96.66666666666667" height="52.88295365278869" as="geometry" />
        </mxCell>
        <mxCell id="mRzZPIl0D3V7TroaUUCZ-15" value="enrich&lt;div&gt;request&lt;/div&gt;" style="rounded=0;whiteSpace=wrap;html=1;fillColor=#dae8fc;strokeColor=#6c8ebf;" parent="mRzZPIl0D3V7TroaUUCZ-8" vertex="1">
          <mxGeometry x="7" y="206.9360341151386" width="62.5" height="35.884861407249474" as="geometry" />
        </mxCell>
        <mxCell id="mRzZPIl0D3V7TroaUUCZ-22" value="rate limit" style="rounded=0;whiteSpace=wrap;html=1;fillColor=#dae8fc;strokeColor=#6c8ebf;" parent="mRzZPIl0D3V7TroaUUCZ-8" vertex="1">
          <mxGeometry x="7" y="4.7846481876332625" width="130" height="35.884861407249474" as="geometry" />
        </mxCell>
        <mxCell id="mRzZPIl0D3V7TroaUUCZ-24" value="HTTP&lt;div&gt;client&lt;/div&gt;" style="whiteSpace=wrap;html=1;aspect=fixed;" parent="mRzZPIl0D3V7TroaUUCZ-8" vertex="1">
          <mxGeometry x="32" y="56.21961620469084" width="80" height="80" as="geometry" />
        </mxCell>
        <mxCell id="mRzZPIl0D3V7TroaUUCZ-29" value="" style="endArrow=classic;html=1;rounded=0;fillColor=#d5e8d4;strokeColor=#000000;exitX=0.25;exitY=0;exitDx=0;exitDy=0;entryX=0.25;entryY=1;entryDx=0;entryDy=0;" parent="mRzZPIl0D3V7TroaUUCZ-8" source="mRzZPIl0D3V7TroaUUCZ-15" target="mRzZPIl0D3V7TroaUUCZ-24" edge="1">
          <mxGeometry width="50" height="50" relative="1" as="geometry">
            <mxPoint x="-5" y="236.8400852878465" as="sourcePoint" />
            <mxPoint x="28" y="236.8400852878465" as="targetPoint" />
          </mxGeometry>
        </mxCell>
        <mxCell id="mRzZPIl0D3V7TroaUUCZ-30" value="enrich&lt;div&gt;response&lt;/div&gt;" style="rounded=0;whiteSpace=wrap;html=1;fillColor=#dae8fc;strokeColor=#6c8ebf;" parent="mRzZPIl0D3V7TroaUUCZ-8" vertex="1">
          <mxGeometry x="77.5" y="206.93603411513857" width="62.5" height="35.884861407249474" as="geometry" />
        </mxCell>
        <mxCell id="mRzZPIl0D3V7TroaUUCZ-31" value="" style="endArrow=classic;html=1;rounded=0;fillColor=#d5e8d4;strokeColor=#82b366;exitX=0.5;exitY=1;exitDx=0;exitDy=0;entryX=0.25;entryY=0;entryDx=0;entryDy=0;" parent="mRzZPIl0D3V7TroaUUCZ-8" source="mRzZPIl0D3V7TroaUUCZ-24" target="mRzZPIl0D3V7TroaUUCZ-30" edge="1">
          <mxGeometry width="50" height="50" relative="1" as="geometry">
            <mxPoint x="75" y="144.6268656716418" as="sourcePoint" />
            <mxPoint x="207" y="271.4925373134328" as="targetPoint" />
          </mxGeometry>
        </mxCell>
        <mxCell id="mRzZPIl0D3V7TroaUUCZ-32" value="" style="endArrow=classic;html=1;rounded=0;fillColor=#f8cecc;strokeColor=#b85450;exitX=0.75;exitY=1;exitDx=0;exitDy=0;entryX=0.5;entryY=0;entryDx=0;entryDy=0;" parent="mRzZPIl0D3V7TroaUUCZ-8" source="mRzZPIl0D3V7TroaUUCZ-24" target="mRzZPIl0D3V7TroaUUCZ-30" edge="1">
          <mxGeometry width="50" height="50" relative="1" as="geometry">
            <mxPoint x="170.39999999999986" y="-61.250746268656684" as="sourcePoint" />
            <mxPoint x="109" y="65.97014925373135" as="targetPoint" />
          </mxGeometry>
        </mxCell>
        <mxCell id="mRzZPIl0D3V7TroaUUCZ-10" value="&lt;font style=&quot;font-size: 17px;&quot;&gt;Kafka&lt;/font&gt;&lt;div style=&quot;font-size: 17px;&quot;&gt;&lt;font style=&quot;font-size: 17px;&quot;&gt;topic&lt;/font&gt;&lt;/div&gt;&lt;div style=&quot;font-size: 17px;&quot;&gt;&lt;i style=&quot;&quot;&gt;&lt;font style=&quot;font-size: 17px;&quot;&gt;http-success&lt;/font&gt;&lt;/i&gt;&lt;/div&gt;" style="shape=cylinder3;whiteSpace=wrap;html=1;boundedLbl=1;backgroundOutline=1;size=15;fillColor=#d5e8d4;strokeColor=#82b366;" parent="1" vertex="1">
          <mxGeometry x="1270" y="124" width="100" height="190" as="geometry" />
        </mxCell>
        <mxCell id="mRzZPIl0D3V7TroaUUCZ-11" value="&lt;font style=&quot;font-size: 17px;&quot;&gt;Kafka&lt;/font&gt;&lt;div style=&quot;font-size: 17px;&quot;&gt;&lt;font style=&quot;font-size: 17px;&quot;&gt;topic&lt;/font&gt;&lt;/div&gt;&lt;div style=&quot;font-size: 17px;&quot;&gt;&lt;i style=&quot;&quot;&gt;&lt;font style=&quot;font-size: 17px;&quot;&gt;http-error&lt;/font&gt;&lt;/i&gt;&lt;/div&gt;" style="shape=cylinder3;whiteSpace=wrap;html=1;boundedLbl=1;backgroundOutline=1;size=15;fillColor=#f8cecc;strokeColor=#b85450;" parent="1" vertex="1">
          <mxGeometry x="1270" y="410" width="100" height="190" as="geometry" />
        </mxCell>
        <mxCell id="mRzZPIl0D3V7TroaUUCZ-12" value="" style="group" parent="1" vertex="1" connectable="0">
          <mxGeometry x="310" y="631" width="710" height="110" as="geometry" />
        </mxCell>
        <mxCell id="opBTZJq-6XGTckG7SBnG-4" value="" style="rounded=0;whiteSpace=wrap;html=1;" parent="mRzZPIl0D3V7TroaUUCZ-12" vertex="1">
          <mxGeometry width="710" height="110" as="geometry" />
        </mxCell>
        <mxCell id="opBTZJq-6XGTckG7SBnG-6" value="JVM" style="text;html=1;align=center;verticalAlign=middle;whiteSpace=wrap;rounded=0;fontSize=15;" parent="mRzZPIl0D3V7TroaUUCZ-12" vertex="1">
          <mxGeometry x="294.71698113207543" y="4" width="80.37735849056604" height="30" as="geometry" />
        </mxCell>
        <mxCell id="opBTZJq-6XGTckG7SBnG-7" value="Connector" style="rounded=0;whiteSpace=wrap;html=1;fontSize=17;" parent="mRzZPIl0D3V7TroaUUCZ-12" vertex="1">
          <mxGeometry x="40.18867924528302" y="34" width="160.75471698113208" height="60" as="geometry" />
        </mxCell>
        <mxCell id="opBTZJq-6XGTckG7SBnG-8" value="Connector" style="rounded=0;whiteSpace=wrap;html=1;fontSize=17;" parent="mRzZPIl0D3V7TroaUUCZ-12" vertex="1">
          <mxGeometry x="254.52830188679243" y="34" width="160.75471698113208" height="60" as="geometry" />
        </mxCell>
        <mxCell id="opBTZJq-6XGTckG7SBnG-9" value="Connector" style="rounded=0;whiteSpace=wrap;html=1;fontSize=17;" parent="mRzZPIl0D3V7TroaUUCZ-12" vertex="1">
          <mxGeometry x="482.2641509433962" y="34" width="160.75471698113208" height="60" as="geometry" />
        </mxCell>
        <mxCell id="mRzZPIl0D3V7TroaUUCZ-23" value="" style="endArrow=classic;html=1;rounded=0;fillColor=#d5e8d4;strokeColor=#000000;exitX=1;exitY=0.5;exitDx=0;exitDy=0;entryX=0;entryY=0.5;entryDx=0;entryDy=0;entryPerimeter=0;" parent="1" source="mRzZPIl0D3V7TroaUUCZ-30" target="ytLzVgo9kWeMUwoSOrhg-2" edge="1">
          <mxGeometry width="50" height="50" relative="1" as="geometry">
            <mxPoint x="690" y="410" as="sourcePoint" />
            <mxPoint x="790" y="370" as="targetPoint" />
          </mxGeometry>
        </mxCell>
        <mxCell id="mRzZPIl0D3V7TroaUUCZ-25" value="" style="endArrow=classic;html=1;rounded=0;fillColor=#d5e8d4;strokeColor=#000000;exitX=0.392;exitY=0.003;exitDx=0;exitDy=0;exitPerimeter=0;" parent="1" source="mRzZPIl0D3V7TroaUUCZ-24" edge="1">
          <mxGeometry width="50" height="50" relative="1" as="geometry">
            <mxPoint x="611" y="247" as="sourcePoint" />
            <mxPoint x="474.75657894736844" y="130" as="targetPoint" />
          </mxGeometry>
        </mxCell>
        <mxCell id="mRzZPIl0D3V7TroaUUCZ-26" value="" style="endArrow=classic;html=1;rounded=0;fillColor=#d5e8d4;strokeColor=#82b366;exitX=0.75;exitY=1;exitDx=0;exitDy=0;entryX=0.25;entryY=0;entryDx=0;entryDy=0;" parent="1" source="opBTZJq-6XGTckG7SBnG-19" target="mRzZPIl0D3V7TroaUUCZ-24" edge="1">
          <mxGeometry width="50" height="50" relative="1" as="geometry">
            <mxPoint x="621" y="257" as="sourcePoint" />
            <mxPoint x="484.75657894736844" y="140" as="targetPoint" />
          </mxGeometry>
        </mxCell>
        <mxCell id="mRzZPIl0D3V7TroaUUCZ-27" value="" style="endArrow=classic;html=1;rounded=0;fillColor=#d5e8d4;strokeColor=#000000;exitX=0.713;exitY=0.003;exitDx=0;exitDy=0;entryX=0.5;entryY=1;entryDx=0;entryDy=0;exitPerimeter=0;" parent="1" source="mRzZPIl0D3V7TroaUUCZ-24" edge="1">
          <mxGeometry width="50" height="50" relative="1" as="geometry">
            <mxPoint x="638" y="247" as="sourcePoint" />
            <mxPoint x="691" y="130" as="targetPoint" />
          </mxGeometry>
        </mxCell>
        <mxCell id="mRzZPIl0D3V7TroaUUCZ-28" value="" style="endArrow=classic;html=1;rounded=0;fillColor=#f8cecc;strokeColor=#b85450;exitX=0.58;exitY=0.995;exitDx=0;exitDy=0;entryX=0.833;entryY=-0.001;entryDx=0;entryDy=0;exitPerimeter=0;entryPerimeter=0;" parent="1" target="mRzZPIl0D3V7TroaUUCZ-24" edge="1">
          <mxGeometry width="50" height="50" relative="1" as="geometry">
            <mxPoint x="705.3999999999999" y="129.65000000000003" as="sourcePoint" />
            <mxPoint x="647.6800000000001" y="248.03999999999996" as="targetPoint" />
          </mxGeometry>
        </mxCell>
        <mxCell id="mRzZPIl0D3V7TroaUUCZ-33" value="" style="group;fillColor=#f8cecc;strokeColor=#b85450;" parent="1" vertex="1" connectable="0">
          <mxGeometry x="1070" y="511" width="140" height="120" as="geometry" />
        </mxCell>
        <mxCell id="mRzZPIl0D3V7TroaUUCZ-34" value="" style="group" parent="mRzZPIl0D3V7TroaUUCZ-33" vertex="1" connectable="0">
          <mxGeometry width="140" height="120" as="geometry" />
        </mxCell>
        <mxCell id="mRzZPIl0D3V7TroaUUCZ-35" value="" style="shape=message;html=1;html=1;outlineConnect=0;labelPosition=center;verticalLabelPosition=bottom;align=center;verticalAlign=top;fillColor=#f8cecc;strokeColor=#b85450;" parent="mRzZPIl0D3V7TroaUUCZ-34" vertex="1">
          <mxGeometry width="140" height="120" as="geometry" />
        </mxCell>
        <mxCell id="mRzZPIl0D3V7TroaUUCZ-36" value="&lt;span style=&quot;font-size: 18px;&quot;&gt;error&lt;/span&gt;&lt;div&gt;&lt;span style=&quot;font-size: 18px;&quot;&gt;&lt;i&gt;(complete&lt;/i&gt;&lt;/span&gt;&lt;/div&gt;&lt;div&gt;&lt;span style=&quot;font-size: 18px;&quot;&gt;&lt;i&gt;exchange)&lt;/i&gt;&lt;/span&gt;&lt;/div&gt;" style="text;html=1;align=center;verticalAlign=middle;whiteSpace=wrap;rounded=0;" parent="mRzZPIl0D3V7TroaUUCZ-34" vertex="1">
          <mxGeometry x="42.68421052631579" y="79.23157894736842" width="58.94736842105264" height="18" as="geometry" />
        </mxCell>
        <mxCell id="mRzZPIl0D3V7TroaUUCZ-37" value="" style="group;fillColor=#dae8fc;strokeColor=#6c8ebf;" parent="1" vertex="1" connectable="0">
          <mxGeometry x="1100" y="170" width="110" height="60" as="geometry" />
        </mxCell>
        <mxCell id="mRzZPIl0D3V7TroaUUCZ-38" value="" style="shape=message;html=1;html=1;outlineConnect=0;labelPosition=center;verticalLabelPosition=bottom;align=center;verticalAlign=top;fillColor=#d5e8d4;strokeColor=#82b366;" parent="mRzZPIl0D3V7TroaUUCZ-37" vertex="1">
          <mxGeometry x="-40" y="-70" width="150" height="130" as="geometry" />
        </mxCell>
        <mxCell id="mRzZPIl0D3V7TroaUUCZ-39" value="&lt;div style=&quot;font-size: 18px;&quot;&gt;success&lt;/div&gt;&lt;div style=&quot;font-size: 18px;&quot;&gt;&lt;span style=&quot;background-color: initial;&quot;&gt;(&lt;i&gt;complete&lt;/i&gt;&lt;/span&gt;&lt;i&gt;&lt;br&gt;&lt;/i&gt;&lt;/div&gt;&lt;div style=&quot;font-size: 18px;&quot;&gt;&lt;div style=&quot;font-size: 12px;&quot;&gt;&lt;span style=&quot;font-size: 18px;&quot;&gt;&lt;i&gt;exchange&lt;/i&gt;)&lt;/span&gt;&lt;/div&gt;&lt;/div&gt;" style="text;html=1;align=center;verticalAlign=middle;whiteSpace=wrap;rounded=0;" parent="mRzZPIl0D3V7TroaUUCZ-37" vertex="1">
          <mxGeometry x="1.2105263157894735" y="15.231578947368426" width="67.36842105263158" height="18.000000000000004" as="geometry" />
        </mxCell>
        <mxCell id="mRzZPIl0D3V7TroaUUCZ-41" value="" style="endArrow=classic;html=1;rounded=0;fillColor=#d5e8d4;strokeColor=#82b366;exitX=1;exitY=0.5;exitDx=0;exitDy=0;entryX=0;entryY=0.5;entryDx=0;entryDy=0;entryPerimeter=0;exitPerimeter=0;" parent="1" source="opBTZJq-6XGTckG7SBnG-26" target="mRzZPIl0D3V7TroaUUCZ-10" edge="1">
          <mxGeometry width="50" height="50" relative="1" as="geometry">
            <mxPoint x="627" y="345" as="sourcePoint" />
            <mxPoint x="648" y="414" as="targetPoint" />
          </mxGeometry>
        </mxCell>
        <mxCell id="mRzZPIl0D3V7TroaUUCZ-42" value="" style="endArrow=classic;html=1;rounded=0;fillColor=#f8cecc;strokeColor=#b85450;entryX=0.04;entryY=0.421;entryDx=0;entryDy=0;entryPerimeter=0;exitX=1;exitY=0.5;exitDx=0;exitDy=0;exitPerimeter=0;" parent="1" source="mRzZPIl0D3V7TroaUUCZ-43" target="mRzZPIl0D3V7TroaUUCZ-11" edge="1">
          <mxGeometry width="50" height="50" relative="1" as="geometry">
            <mxPoint x="715.3999999999999" y="139.65000000000003" as="sourcePoint" />
            <mxPoint x="654" y="265" as="targetPoint" />
          </mxGeometry>
        </mxCell>
        <mxCell id="mRzZPIl0D3V7TroaUUCZ-43" value="retryable ?" style="strokeWidth=2;html=1;shape=mxgraph.flowchart.decision;whiteSpace=wrap;" parent="1" vertex="1">
          <mxGeometry x="910" y="470" width="80" height="90" as="geometry" />
        </mxCell>
        <mxCell id="mRzZPIl0D3V7TroaUUCZ-45" value="" style="endArrow=classic;html=1;rounded=0;fillColor=#f8cecc;strokeColor=#b85450;entryX=0.5;entryY=0;entryDx=0;entryDy=0;entryPerimeter=0;exitX=0.5;exitY=1;exitDx=0;exitDy=0;exitPerimeter=0;" parent="1" source="opBTZJq-6XGTckG7SBnG-26" target="mRzZPIl0D3V7TroaUUCZ-43" edge="1">
          <mxGeometry width="50" height="50" relative="1" as="geometry">
            <mxPoint x="830" y="545" as="sourcePoint" />
            <mxPoint x="1110" y="590" as="targetPoint" />
          </mxGeometry>
        </mxCell>
        <mxCell id="mRzZPIl0D3V7TroaUUCZ-47" value="" style="endArrow=classic;html=1;rounded=0;fillColor=#d5e8d4;strokeColor=#000000;exitX=0;exitY=0.5;exitDx=0;exitDy=0;entryX=0.5;entryY=1;entryDx=0;entryDy=0;exitPerimeter=0;" parent="1" source="mRzZPIl0D3V7TroaUUCZ-43" target="mRzZPIl0D3V7TroaUUCZ-15" edge="1">
          <mxGeometry width="50" height="50" relative="1" as="geometry">
            <mxPoint x="578" y="414" as="sourcePoint" />
            <mxPoint x="607" y="345" as="targetPoint" />
            <Array as="points">
              <mxPoint x="570" y="470" />
            </Array>
          </mxGeometry>
        </mxCell>
        <mxCell id="mRzZPIl0D3V7TroaUUCZ-48" value="&lt;font style=&quot;font-size: 18px;&quot;&gt;HTTP Sink&lt;/font&gt;&lt;div style=&quot;font-size: 18px;&quot;&gt;&lt;font style=&quot;font-size: 18px;&quot;&gt;Connector&lt;/font&gt;&lt;/div&gt;" style="text;html=1;align=center;verticalAlign=middle;whiteSpace=wrap;rounded=0;" parent="1" vertex="1">
          <mxGeometry x="360" y="210" width="120" height="30" as="geometry" />
        </mxCell>
        <mxCell id="opBTZJq-6XGTckG7SBnG-24" value="" style="endArrow=classic;html=1;rounded=0;exitX=1.03;exitY=0.584;exitDx=0;exitDy=0;fillColor=#f8cecc;strokeColor=#000000;exitPerimeter=0;entryX=0.033;entryY=0.56;entryDx=0;entryDy=0;entryPerimeter=0;" parent="1" source="opBTZJq-6XGTckG7SBnG-1" target="mRzZPIl0D3V7TroaUUCZ-1" edge="1">
          <mxGeometry width="50" height="50" relative="1" as="geometry">
            <mxPoint x="115" y="576" as="sourcePoint" />
            <mxPoint x="170" y="510" as="targetPoint" />
          </mxGeometry>
        </mxCell>
        <mxCell id="mRzZPIl0D3V7TroaUUCZ-21" value="" style="endArrow=classic;html=1;rounded=0;fillColor=#d5e8d4;strokeColor=#000000;exitX=1.015;exitY=0.583;exitDx=0;exitDy=0;entryX=0;entryY=0.5;entryDx=0;entryDy=0;exitPerimeter=0;" parent="1" edge="1">
          <mxGeometry width="50" height="50" relative="1" as="geometry">
            <mxPoint x="510.75" y="419.77" as="sourcePoint" />
            <mxPoint x="552" y="419.8784648187633" as="targetPoint" />
          </mxGeometry>
        </mxCell>
        <mxCell id="ytLzVgo9kWeMUwoSOrhg-2" value="publisher&lt;div&gt;config&lt;/div&gt;" style="strokeWidth=2;html=1;shape=mxgraph.flowchart.decision;whiteSpace=wrap;" parent="1" vertex="1">
          <mxGeometry x="710" y="300" width="70" height="70" as="geometry" />
        </mxCell>
        <mxCell id="ytLzVgo9kWeMUwoSOrhg-3" value="Direct low level&lt;div&gt;kafka producer&lt;/div&gt;" style="rounded=0;whiteSpace=wrap;html=1;" parent="1" vertex="1">
          <mxGeometry x="758" y="195" width="120" height="60" as="geometry" />
        </mxCell>
        <mxCell id="ytLzVgo9kWeMUwoSOrhg-4" value="in memory queue&lt;div&gt;+&lt;/div&gt;&lt;div&gt;HTTP&lt;/div&gt;&lt;div&gt;Source Connector&lt;/div&gt;" style="rounded=0;whiteSpace=wrap;html=1;" parent="1" vertex="1">
          <mxGeometry x="740" y="420" width="120" height="60" as="geometry" />
        </mxCell>
        <mxCell id="ytLzVgo9kWeMUwoSOrhg-5" value="" style="endArrow=classic;html=1;rounded=0;fillColor=#d5e8d4;strokeColor=#000000;exitX=0.5;exitY=0;exitDx=0;exitDy=0;entryX=0.25;entryY=1;entryDx=0;entryDy=0;exitPerimeter=0;dashed=1;" parent="1" source="ytLzVgo9kWeMUwoSOrhg-2" target="ytLzVgo9kWeMUwoSOrhg-3" edge="1">
          <mxGeometry width="50" height="50" relative="1" as="geometry">
            <mxPoint x="680" y="430" as="sourcePoint" />
            <mxPoint x="720" y="345" as="targetPoint" />
          </mxGeometry>
        </mxCell>
        <mxCell id="ytLzVgo9kWeMUwoSOrhg-6" value="" style="endArrow=classic;html=1;rounded=0;fillColor=#d5e8d4;strokeColor=#000000;exitX=0.5;exitY=1;exitDx=0;exitDy=0;entryX=0.25;entryY=0;entryDx=0;entryDy=0;exitPerimeter=0;dashed=1;" parent="1" source="ytLzVgo9kWeMUwoSOrhg-2" target="ytLzVgo9kWeMUwoSOrhg-4" edge="1">
          <mxGeometry width="50" height="50" relative="1" as="geometry">
            <mxPoint x="750" y="310" as="sourcePoint" />
            <mxPoint x="828" y="283" as="targetPoint" />
          </mxGeometry>
        </mxCell>
        <mxCell id="ytLzVgo9kWeMUwoSOrhg-7" value="" style="endArrow=classic;html=1;rounded=0;fillColor=#d5e8d4;strokeColor=#000000;exitX=0.75;exitY=1;exitDx=0;exitDy=0;entryX=0;entryY=0.5;entryDx=0;entryDy=0;dashed=1;entryPerimeter=0;" parent="1" source="ytLzVgo9kWeMUwoSOrhg-3" target="opBTZJq-6XGTckG7SBnG-26" edge="1">
          <mxGeometry width="50" height="50" relative="1" as="geometry">
            <mxPoint x="760" y="320" as="sourcePoint" />
            <mxPoint x="838" y="293" as="targetPoint" />
          </mxGeometry>
        </mxCell>
        <mxCell id="ytLzVgo9kWeMUwoSOrhg-8" value="" style="endArrow=classic;html=1;rounded=0;fillColor=#d5e8d4;strokeColor=#000000;exitX=0.75;exitY=0;exitDx=0;exitDy=0;entryX=0;entryY=0.5;entryDx=0;entryDy=0;dashed=1;entryPerimeter=0;" parent="1" source="ytLzVgo9kWeMUwoSOrhg-4" target="opBTZJq-6XGTckG7SBnG-26" edge="1">
          <mxGeometry width="50" height="50" relative="1" as="geometry">
            <mxPoint x="770" y="330" as="sourcePoint" />
            <mxPoint x="848" y="303" as="targetPoint" />
          </mxGeometry>
        </mxCell>
      </root>
    </mxGraphModel>
  </diagram>
</mxfile>
